# xmcd CD database file
#
# Track frame offsets:
#	150
#	19587
#	36832
#	55047
#	70847
#	85508
#	112369
#	130576
#	154629
#	169706
#	187082
#	202947
#
# Disc length: 2956 seconds
#
# Revision: 1
# Processed by: cddbd v1.5.1PL2 Copyright (c) Steve Scherf et al.
# Submitted via: CDex 1.50
#
DISCID=960b8a0c
DTITLE=Goya and Carmina - Bahia Lady
DYEAR=1009
DGENRE=Jazz
TTITLE0=Cantinero Di Cuba
TTITLE1=Eu Sem Voce
TTITLE2=How Insensitive
TTITLE3=Cacha Mecanica
TTITLE4=Jolanta
TTITLE5=Chabada - Mas Que Nada - Agua De Beber - Voce Abusou
TTITLE6=Bahia Lady
TTITLE7=Orfeo Negro (Manha De Carnaval)
TTITLE8=Porque Te Vas (Let Go)
TTITLE9=Amazonia
TTITLE10=Nostalgia
TTITLE11=Zazuera
EXTD=YEAR: 1009
EXTT0=
EXTT1=
EXTT2=
EXTT3=
EXTT4=
EXTT5=
EXTT6=
EXTT7=
EXTT8=
EXTT9=
EXTT10=
EXTT11=
PLAYORDER=
